<?xml version="1.0" encoding="iso-8859-1"?>
<!-- Generator: Adobe Illustrator 18.0.0, SVG Export Plug-In . SVG Version: 6.00 Build 0)  -->
<!DOCTYPE svg PUBLIC "-//W3C//DTD SVG 1.1//EN" "http://www.w3.org/Graphics/SVG/1.1/DTD/svg11.dtd">
<svg version="1.1" xmlns="http://www.w3.org/2000/svg" xmlns:xlink="http://www.w3.org/1999/xlink" x="0px" y="0px"
	 viewBox="0 0 126 128" style="enable-background:new 0 0 126 128;" xml:space="preserve">
<symbol  id="Button_Big_Green" viewBox="-62 -66 124 128">
	<g>
		<g>
			<g>
				<g style="opacity:0.2;">
					<path d="M62-4c0-34.242-27.758-62-62-62S-62-38.242-62-4s27.758,62,62,62S62,30.242,62-4z"/>
				</g>
				<g>
					<path style="fill:#73944C;" d="M62,0c0-34.242-27.758-62-62-62S-62-34.242-62,0s27.758,62,62,62S62,34.242,62,0z"/>
				</g>
			</g>
			<path style="fill:#576D33;" d="M0-11.88c-20.399,0-38.494-9.855-49.793-25.06C-38.494-52.146-20.399-62,0-62
				s38.494,9.854,49.793,25.06C38.494-21.735,20.399-11.88,0-11.88z"/>
			<path style="fill:#C4DD9E;" d="M0,62c-23.876,0-44.587-13.505-54.946-33.285C-44.587,8.935-23.876-4.57,0-4.57
				S44.587,8.935,54.946,28.715C44.587,48.495,23.876,62,0,62z"/>
			<path style="fill:#C4DD9E;" d="M54.946,2.225c0-30.346-24.6-54.946-54.946-54.946s-54.946,24.6-54.946,54.946
				S-30.346,57.171,0,57.171S54.946,32.571,54.946,2.225z"/>
			<path style="fill:#7FAA5A;" d="M52.823,4.348c0-29.174-23.65-52.823-52.823-52.823c-26.333,0-48.166,19.269-52.168,44.477
				l10.6,3.674l-11.01-0.452c0,0-0.245,3.395-0.245,5.124c0,29.174,23.65,52.823,52.823,52.823c27.223,0,49.636-20.592,52.512-47.05
				l-11.104,0.382l11.398-4.76C52.817,5.279,52.823,4.814,52.823,4.348z"/>
			<path style="fill:#576D33;" d="M39.271,4.348c0-21.689-17.582-39.271-39.271-39.271S-39.271-17.341-39.271,4.348
				S-21.689,43.618,0,43.618S39.271,26.036,39.271,4.348z"/>
			<path style="fill:#485B24;" d="M0,37.259c20.617,0,37.511-15.891,39.131-36.091c0.084,1.05,0.139,2.108,0.139,3.18
				c0,21.688-17.582,39.271-39.271,39.271S-39.271,26.036-39.271,4.348c0-1.072,0.055-2.13,0.139-3.18
				C-37.511,21.368-20.617,37.259,0,37.259z"/>
			<polygon style="fill:#576D33;" points="-62,-2.012 -54.946,2.225 -41.568,-0.325 -52.823,-1.148 			"/>
			<polygon style="fill:#576D33;" points="61.839,8.816 54.785,13.053 41.407,10.503 52.663,9.68 			"/>
		</g>
	</g>
	<polygon style="display:none;fill:none;" points="-62,62 62,62 62,-66 -62,-66 	"/>
</symbol>
<g id="btn_x5F_big_x5F_data_x5F_save_x5F_green">
	<g>

			<use xlink:href="#Button_Big_Green"  width="124" height="128" x="-62" y="-66" transform="matrix(1 0 0 -1 63 62)" style="overflow:visible;"/>
		<g>
			<g style="opacity:0.2;">
				<path d="M64.78,53.189h2.294c0.54,0,0.979-0.438,0.979-0.979v-6.015c0-0.516-0.4-0.943-0.915-0.976l-2.294-0.149
					c-0.564-0.037-1.042,0.411-1.042,0.976v6.164C63.801,52.751,64.24,53.189,64.78,53.189z M76.599,41.966
					c-0.816-0.796-1.899-1.259-3.038-1.299L43.522,39.19c-2.038-0.1-3.717,1.582-3.613,3.619l2.067,40.606
					c0.03,0.858,0.746,1.531,1.604,1.508l40.476-1.067c0.836-0.022,1.507-0.699,1.522-1.535l0.517-29.08
					c0.022-1.263-0.477-2.478-1.381-3.36L76.599,41.966z M51.2,43.509h17.812c1.78,0,3.224,1.443,3.224,3.224v7.698
					c0,0.863-0.7,1.563-1.563,1.563H51.689c-1.654,0-3.033-1.265-3.176-2.913l-0.525-6.071C47.825,45.127,49.31,43.509,51.2,43.509z
					 M80.36,76.931c0,0.729-0.696,1.329-1.579,1.362L50.27,79.35c-0.916,0.034-1.691-0.554-1.726-1.31l-0.422-9.11
					c-0.036-0.773,0.714-1.415,1.652-1.415h28.934c0.913,0,1.653,0.61,1.653,1.363V76.931z"/>
			</g>
			<g>
				<path style="fill:#FFFFFF;" d="M64.78,49.189h2.294c0.54,0,0.979-0.438,0.979-0.979v-6.015c0-0.516-0.4-0.943-0.915-0.976
					l-2.294-0.149c-0.564-0.037-1.042,0.411-1.042,0.976v6.164C63.801,48.751,64.24,49.189,64.78,49.189z M76.599,37.966
					c-0.816-0.796-1.899-1.259-3.038-1.299L43.522,35.19c-2.038-0.1-3.717,1.582-3.613,3.619l2.067,40.606
					c0.03,0.858,0.746,1.531,1.604,1.508l40.476-1.067c0.836-0.022,1.507-0.699,1.522-1.535l0.517-29.08
					c0.022-1.263-0.477-2.478-1.381-3.36L76.599,37.966z M51.2,39.509h17.812c1.78,0,3.224,1.443,3.224,3.224v7.698
					c0,0.863-0.7,1.563-1.563,1.563H51.689c-1.654,0-3.033-1.265-3.176-2.913l-0.525-6.071C47.825,41.127,49.31,39.509,51.2,39.509z
					 M80.36,72.931c0,0.729-0.696,1.329-1.579,1.362L50.27,75.35c-0.916,0.034-1.691-0.554-1.726-1.31l-0.422-9.11
					c-0.036-0.773,0.714-1.415,1.652-1.415h28.934c0.913,0,1.653,0.61,1.653,1.363V72.931z"/>
			</g>
		</g>
	</g>
</g>
<g id="Layer_1">
</g>
</svg>
