<?xml version="1.0" encoding="iso-8859-1"?>
<!-- Generator: Adobe Illustrator 18.0.0, SVG Export Plug-In . SVG Version: 6.00 Build 0)  -->
<!DOCTYPE svg PUBLIC "-//W3C//DTD SVG 1.1//EN" "http://www.w3.org/Graphics/SVG/1.1/DTD/svg11.dtd">
<svg version="1.1" xmlns="http://www.w3.org/2000/svg" xmlns:xlink="http://www.w3.org/1999/xlink" x="0px" y="0px"
	 viewBox="0 0 126 128" style="enable-background:new 0 0 126 128;" xml:space="preserve">
<symbol  id="Button_Big_Red" viewBox="-62 -66 124 128">
	<g>
		<g>
			<g>
				<g style="opacity:0.2;">
					<path d="M62-4c0-34.242-27.758-62-62-62S-62-38.242-62-4s27.758,62,62,62S62,30.242,62-4z"/>
				</g>
				<g>
					<path style="fill:#955544;" d="M62,0c0-34.242-27.758-62-62-62S-62-34.242-62,0s27.758,62,62,62S62,34.242,62,0z"/>
				</g>
			</g>
			<path style="fill:#773E31;" d="M0-11.88c-20.399,0-38.494-9.855-49.793-25.06C-38.494-52.146-20.399-62,0-62
				s38.494,9.854,49.793,25.06C38.494-21.735,20.399-11.88,0-11.88z"/>
			<path style="fill:#D19284;" d="M0,62c-23.876,0-44.587-13.505-54.946-33.285C-44.587,8.935-23.876-4.57,0-4.57
				S44.587,8.935,54.946,28.715C44.587,48.495,23.876,62,0,62z"/>
			<path style="fill:#D19284;" d="M54.946,2.225c0-30.346-24.6-54.946-54.946-54.946s-54.946,24.6-54.946,54.946
				S-30.346,57.171,0,57.171S54.946,32.571,54.946,2.225z"/>
			<path style="fill:#A7654F;" d="M52.823,4.348c0-29.174-23.65-52.823-52.823-52.823c-26.333,0-48.166,19.269-52.168,44.477
				l10.6,3.674l-11.01-0.452c0,0-0.245,3.395-0.245,5.124c0,29.174,23.65,52.823,52.823,52.823c27.223,0,49.636-20.592,52.512-47.05
				l-11.104,0.382l11.398-4.76C52.817,5.279,52.823,4.814,52.823,4.348z"/>
			<path style="fill:#773E31;" d="M39.271,4.348c0-21.689-17.582-39.271-39.271-39.271S-39.271-17.341-39.271,4.348
				S-21.689,43.618,0,43.618S39.271,26.036,39.271,4.348z"/>
			<path style="fill:#632F27;" d="M0,37.259c20.617,0,37.511-15.891,39.131-36.091c0.084,1.05,0.139,2.108,0.139,3.18
				c0,21.688-17.582,39.271-39.271,39.271S-39.271,26.036-39.271,4.348c0-1.072,0.055-2.13,0.139-3.18
				C-37.511,21.368-20.617,37.259,0,37.259z"/>
			<polygon style="fill:#773E31;" points="-62,-2.012 -54.946,2.225 -41.568,-0.325 -52.823,-1.148 			"/>
			<polygon style="fill:#773E31;" points="61.839,8.816 54.785,13.053 41.407,10.503 52.663,9.68 			"/>
		</g>
	</g>
	<polygon style="display:none;fill:none;" points="-62,62 62,62 62,-66 -62,-66 	"/>
</symbol>
<g id="btn_x5F_big_x5F_arrow_x5F_left_x5F_red">
	<g>

			<use xlink:href="#Button_Big_Red"  width="124" height="128" x="-62" y="-66" transform="matrix(1 0 0 -1 63 62)" style="overflow:visible;"/>
		<g>
			<g style="opacity:0.2;">
				<path d="M40.887,57.91l16.586-14.09c3.141-2.668,7.705-0.212,7.705,4.145v5.581l16.313,2.234
					c3.136,0.43,5.474,3.109,5.474,6.275v0c0,3.166-2.338,5.845-5.474,6.275l-16.313,2.234v5.581c0,4.358-4.564,6.813-7.705,4.145
					L40.887,66.2C38.417,64.101,38.417,60.009,40.887,57.91z"/>
			</g>
			<g>
				<path style="fill:#FFFFFF;" d="M40.887,53.91l16.586-14.09c3.141-2.668,7.705-0.212,7.705,4.145v5.581l16.313,2.234
					c3.136,0.43,5.474,3.109,5.474,6.275v0c0,3.166-2.338,5.845-5.474,6.275l-16.313,2.234v5.581c0,4.358-4.564,6.813-7.705,4.145
					L40.887,62.2C38.417,60.101,38.417,56.009,40.887,53.91z"/>
			</g>
		</g>
	</g>
</g>
<g id="Layer_1">
</g>
</svg>
