<?xml version="1.0" encoding="iso-8859-1"?>
<!-- Generator: Adobe Illustrator 18.0.0, SVG Export Plug-In . SVG Version: 6.00 Build 0)  -->
<!DOCTYPE svg PUBLIC "-//W3C//DTD SVG 1.1//EN" "http://www.w3.org/Graphics/SVG/1.1/DTD/svg11.dtd">
<svg version="1.1" xmlns="http://www.w3.org/2000/svg" xmlns:xlink="http://www.w3.org/1999/xlink" x="0px" y="0px"
	 viewBox="0 0 440 330" style="enable-background:new 0 0 440 330;" xml:space="preserve">
<symbol  id="Shape_Icon_Coin" viewBox="-40 -42 80 82">
	<g>
		<g>
			<g>
				<g>
					<g>
						<g style="opacity:0.2;">
							<path d="M40-2c0-22.091-17.909-40-40-40S-40-24.091-40-2s17.909,40,40,40S40,20.092,40-2z"/>
						</g>
						<g>

								<linearGradient id="SVGID_1_" gradientUnits="userSpaceOnUse" x1="-1.475200e-09" y1="32.7769" x2="1.556565e-09" y2="-34.5966">
								<stop  offset="0" style="stop-color:#E3B137"/>
								<stop  offset="0.3252" style="stop-color:#BA8C1E"/>
								<stop  offset="0.6798" style="stop-color:#FFD859"/>
								<stop  offset="0.6854" style="stop-color:#F6BF20"/>
								<stop  offset="1" style="stop-color:#946622"/>
							</linearGradient>
							<path style="fill:url(#SVGID_1_);" d="M40,0c0-22.091-17.909-40-40-40S-40-22.091-40,0s17.909,40,40,40S40,22.092,40,0z"/>
						</g>
					</g>
					<path style="fill:#AF7B00;" d="M0-7.664c-13.161,0-24.835-6.358-32.125-16.168c7.29-9.81,18.964-16.168,32.125-16.168
						s24.835,6.358,32.125,16.168C24.835-14.022,13.161-7.664,0-7.664z"/>
					<path style="fill:#FFCD4E;" d="M0,40c-15.404,0-28.766-8.713-35.449-21.474C-28.766,5.765-15.404-2.948,0-2.948
						s28.766,8.713,35.449,21.474C28.766,31.288,15.404,40,0,40z"/>
					<path style="fill:#FFCD4E;" d="M35.449,1.436c0-19.578-15.871-35.449-35.449-35.449S-35.449-18.142-35.449,1.436
						S-19.578,36.885,0,36.885S35.449,21.014,35.449,1.436z"/>
					<radialGradient id="SVGID_2_" cx="0" cy="2.8054" r="34.0796" gradientUnits="userSpaceOnUse">
						<stop  offset="0" style="stop-color:#FDF9CD"/>
						<stop  offset="0.1333" style="stop-color:#FDF4BC"/>
						<stop  offset="0.3982" style="stop-color:#FEE78F"/>
						<stop  offset="0.6798" style="stop-color:#FFD859"/>
						<stop  offset="0.6854" style="stop-color:#F6BF20"/>
						<stop  offset="1" style="stop-color:#B97F2B"/>
					</radialGradient>
					<path style="fill:url(#SVGID_2_);" d="M34.08,2.805c0-18.822-15.258-34.08-34.08-34.08c-16.989,0-31.075,12.432-33.657,28.695
						l6.838,2.37L-33.921-0.5c0,0-0.158,2.191-0.158,3.306c0,18.822,15.258,34.08,34.08,34.08c17.563,0,32.023-13.285,33.878-30.355
						l-7.164,0.247l7.354-3.071C34.076,3.406,34.08,3.106,34.08,2.805z"/>
					<g>
						<path style="fill:#FDF0B4;" d="M0,34.817c14.206,0,26.413-8.118,31.794-19.741C26.867,27.833,14.494,36.885,0,36.885
							c-14.491,0-26.86-9.048-31.79-21.799C-26.406,26.704-14.202,34.817,0,34.817z"/>
					</g>
					<g>
						<path style="fill:#875C06;" d="M25.336,2.805C25.336-11.187,13.993-22.53,0-22.53S-25.336-11.187-25.336,2.805
							S-13.993,28.141,0,28.141S25.336,16.798,25.336,2.805z"/>
						<path style="fill:#885D06;" d="M25.052,2.805c0-13.836-11.216-25.052-25.052-25.052S-25.052-11.031-25.052,2.805
							S-13.836,27.858,0,27.858S25.052,16.641,25.052,2.805z"/>
						<path style="fill:#895E06;" d="M24.769,2.805c0-13.679-11.089-24.769-24.769-24.769S-24.769-10.874-24.769,2.805
							S-13.679,27.574,0,27.574S24.769,16.485,24.769,2.805z"/>
						<path style="fill:#8B5F05;" d="M24.485,2.805C24.485-10.717,13.523-21.68,0-21.68S-24.485-10.717-24.485,2.805
							S-13.523,27.29,0,27.29S24.485,16.328,24.485,2.805z"/>
						<path style="fill:#8C6005;" d="M24.201,2.805c0-13.366-10.835-24.201-24.201-24.201S-24.201-10.561-24.201,2.805
							S-13.366,27.007,0,27.007S24.201,16.171,24.201,2.805z"/>
						<path style="fill:#8D6105;" d="M23.918,2.805c0-13.209-10.708-23.918-23.918-23.918S-23.918-10.404-23.918,2.805
							S-13.209,26.723,0,26.723S23.918,16.015,23.918,2.805z"/>
						<path style="fill:#8E6105;" d="M23.634,2.805c0-13.053-10.581-23.634-23.634-23.634S-23.634-10.247-23.634,2.805
							S-13.053,26.44,0,26.44S23.634,15.858,23.634,2.805z"/>
						<path style="fill:#8F6205;" d="M23.351,2.805c0-12.896-10.454-23.351-23.351-23.351S-23.351-10.091-23.351,2.805
							S-12.896,26.156,0,26.156S23.351,15.702,23.351,2.805z"/>
						<path style="fill:#906305;" d="M23.067,2.805C23.067-9.934,12.74-20.262,0-20.262S-23.067-9.934-23.067,2.805
							S-12.74,25.872,0,25.872S23.067,15.545,23.067,2.805z"/>
						<path style="fill:#926404;" d="M22.783,2.805c0-12.583-10.2-22.783-22.783-22.783s-22.783,10.2-22.783,22.783
							S-12.583,25.589,0,25.589S22.783,15.388,22.783,2.805z"/>
						<path style="fill:#936504;" d="M22.5,2.805c0-12.426-10.073-22.5-22.5-22.5s-22.5,10.073-22.5,22.5s10.073,22.5,22.5,22.5
							S22.5,15.232,22.5,2.805z"/>
						<path style="fill:#946604;" d="M22.216,2.805c0-12.27-9.946-22.216-22.216-22.216S-22.216-9.464-22.216,2.805
							S-12.27,25.022,0,25.022S22.216,15.075,22.216,2.805z"/>
						<path style="fill:#956704;" d="M21.932,2.805c0-12.113-9.82-21.933-21.933-21.933s-21.933,9.82-21.933,21.933
							S-12.113,24.738,0,24.738S21.932,14.918,21.932,2.805z"/>
						<path style="fill:#966804;" d="M21.649,2.805c0-11.956-9.693-21.649-21.649-21.649S-21.649-9.151-21.649,2.805
							S-11.956,24.454,0,24.454S21.649,14.762,21.649,2.805z"/>
						<path style="fill:#976904;" d="M21.365,2.805C21.365-8.994,11.8-18.56,0-18.56S-21.365-8.994-21.365,2.805
							S-11.8,24.171,0,24.171S21.365,14.605,21.365,2.805z"/>
						<path style="fill:#996A03;" d="M21.082,2.805c0-11.643-9.439-21.082-21.082-21.082S-21.082-8.838-21.082,2.805
							S-11.643,23.887,0,23.887S21.082,14.448,21.082,2.805z"/>
						<path style="fill:#9A6B03;" d="M20.798,2.805c0-11.486-9.312-20.798-20.798-20.798S-20.798-8.681-20.798,2.805
							S-11.486,23.603,0,23.603S20.798,14.292,20.798,2.805z"/>
						<path style="fill:#9B6C03;" d="M20.514,2.805c0-11.33-9.185-20.514-20.514-20.514S-20.514-8.524-20.514,2.805
							S-11.33,23.32,0,23.32S20.514,14.135,20.514,2.805z"/>
						<path style="fill:#9C6C03;" d="M20.231,2.805c0-11.173-9.058-20.231-20.231-20.231S-20.231-8.368-20.231,2.805
							S-11.173,23.036,0,23.036S20.231,13.979,20.231,2.805z"/>
						<path style="fill:#9D6D03;" d="M19.947,2.805c0-11.017-8.931-19.947-19.947-19.947S-19.947-8.211-19.947,2.805
							S-11.017,22.753,0,22.753S19.947,13.822,19.947,2.805z"/>
						<path style="fill:#9F6E02;" d="M19.664,2.805c0-10.86-8.804-19.664-19.664-19.664S-19.664-8.055-19.664,2.805
							S-10.86,22.469,0,22.469S19.664,13.665,19.664,2.805z"/>
						<path style="fill:#A06F02;" d="M19.38,2.805c0-10.703-8.677-19.38-19.38-19.38s-19.38,8.677-19.38,19.38
							s8.677,19.38,19.38,19.38S19.38,13.509,19.38,2.805z"/>
						<path style="fill:#A17002;" d="M19.096,2.805c0-10.547-8.55-19.096-19.096-19.096s-19.096,8.55-19.096,19.096
							S-10.547,21.902,0,21.902S19.096,13.352,19.096,2.805z"/>
						<path style="fill:#A27102;" d="M18.813,2.805c0-10.39-8.423-18.813-18.813-18.813S-18.813-7.585-18.813,2.805
							S-10.39,21.618,0,21.618S18.813,13.195,18.813,2.805z"/>
						<path style="fill:#A37202;" d="M18.529,2.805c0-10.233-8.296-18.529-18.529-18.529S-18.529-7.428-18.529,2.805
							S-10.233,21.335,0,21.335S18.529,13.039,18.529,2.805z"/>
						<path style="fill:#A47302;" d="M18.246,2.805C18.246-7.271,10.077-15.44,0-15.44S-18.246-7.271-18.246,2.805
							S-10.077,21.051,0,21.051S18.246,12.882,18.246,2.805z"/>
						<path style="fill:#A67401;" d="M17.962,2.805c0-9.92-8.042-17.962-17.962-17.962S-17.962-7.115-17.962,2.805
							S-9.92,20.767,0,20.767S17.962,12.726,17.962,2.805z"/>
						<path style="fill:#A77501;" d="M17.678,2.805c0-9.763-7.915-17.678-17.678-17.678S-17.678-6.958-17.678,2.805
							S-9.763,20.484,0,20.484S17.678,12.569,17.678,2.805z"/>
						<path style="fill:#A87601;" d="M17.395,2.805c0-9.607-7.788-17.395-17.395-17.395S-17.395-6.801-17.395,2.805
							S-9.607,20.2,0,20.2S17.395,12.412,17.395,2.805z"/>
						<path style="fill:#A97601;" d="M17.111,2.805c0-9.45-7.661-17.111-17.111-17.111S-17.111-6.645-17.111,2.805
							S-9.45,19.917,0,19.917S17.111,12.256,17.111,2.805z"/>
						<path style="fill:#AA7701;" d="M16.827,2.805c0-9.294-7.534-16.828-16.828-16.828S-16.828-6.488-16.828,2.805
							S-9.294,19.633,0,19.633S16.827,12.099,16.827,2.805z"/>
						<path style="fill:#AB7801;" d="M16.544,2.805c0-9.137-7.407-16.544-16.544-16.544S-16.544-6.332-16.544,2.805
							S-9.137,19.349,0,19.349S16.544,11.942,16.544,2.805z"/>
						<path style="fill:#AD7900;" d="M16.26,2.805c0-8.98-7.28-16.26-16.26-16.26s-16.26,7.28-16.26,16.26S-8.98,19.066,0,19.066
							S16.26,11.786,16.26,2.805z"/>
						<path style="fill:#AE7A00;" d="M15.977,2.805c0-8.824-7.153-15.977-15.977-15.977S-15.977-6.018-15.977,2.805
							S-8.824,18.782,0,18.782S15.977,11.629,15.977,2.805z"/>
						<path style="fill:#AF7B00;" d="M15.693,2.805c0-8.667-7.026-15.693-15.693-15.693S-15.693-5.862-15.693,2.805
							S-8.667,18.498,0,18.498S15.693,11.472,15.693,2.805z"/>
					</g>
					<path style="opacity:0.2;" d="M0,24.038c13.301,0,24.201-10.252,25.246-23.284c0.054,0.677,0.09,1.36,0.09,2.052
						c0,13.992-11.343,25.336-25.336,25.336S-25.336,16.798-25.336,2.805c0-0.691,0.035-1.374,0.09-2.052
						C-24.201,13.786-13.301,24.038,0,24.038z"/>
					<polygon style="fill:#AF7B00;" points="-40,-1.297 -35.449,1.436 -26.818,-0.209 -34.08,-0.74 					"/>
					<polygon style="fill:#AF7B00;" points="39.896,5.688 35.345,8.422 26.714,6.777 33.976,6.245 					"/>
				</g>
			</g>
			<g>
				<radialGradient id="SVGID_3_" cx="-26.6598" cy="-0.4449" r="8.6343" gradientUnits="userSpaceOnUse">
					<stop  offset="0" style="stop-color:#FDF0B4"/>
					<stop  offset="0.135" style="stop-color:#FAE8A3;stop-opacity:0.865"/>
					<stop  offset="0.4034" style="stop-color:#F3D376;stop-opacity:0.5966"/>
					<stop  offset="0.7761" style="stop-color:#E7B22E;stop-opacity:0.2239"/>
					<stop  offset="1" style="stop-color:#DF9C00;stop-opacity:0"/>
					<stop  offset="1" style="stop-color:#FDF0B4"/>
				</radialGradient>
				<polygon style="fill:url(#SVGID_3_);" points="-19.159,-7.378 -26.532,-1.56 -27.297,-10.92 -27.344,-1.529 -35.139,-6.766
					-27.826,-0.874 -36.782,1.956 -27.615,-0.088 -30.987,8.676 -26.87,0.237 -22.119,8.338 -26.151,-0.144 -16.855,1.192
					-26,-0.944 				"/>
				<g>
					<radialGradient id="SVGID_4_" cx="-26.6598" cy="-0.4452" r="8.6346" gradientUnits="userSpaceOnUse">
						<stop  offset="0" style="stop-color:#FDF0B4"/>
						<stop  offset="0.135" style="stop-color:#FAE8A3;stop-opacity:0.865"/>
						<stop  offset="0.4034" style="stop-color:#F3D376;stop-opacity:0.5966"/>
						<stop  offset="0.7761" style="stop-color:#E7B22E;stop-opacity:0.2239"/>
						<stop  offset="1" style="stop-color:#DF9C00;stop-opacity:0"/>
						<stop  offset="1" style="stop-color:#FDF0B4"/>
					</radialGradient>
					<polygon style="fill:url(#SVGID_4_);" points="-21.028,-2.902 -26.428,-1.113 -24.929,-6.601 -26.898,-1.263 -30.253,-5.856
						-27.307,-0.99 -32.991,-1.23 -27.349,-0.499 -31.08,3.796 -26.991,-0.159 -25.961,5.435 -26.504,-0.228 -21.487,2.454
						-26.253,-0.652 					"/>
				</g>
			</g>
		</g>
		<g>
			<g style="opacity:0.2;">
				<path d="M-9.298-4.754c2.475,0.546,4.986,0.655,5.713,0.546c0.655-2.474,2.148-3.785,3.312-3.785
					c1.055,0,2.001,0.582,2.001,1.675c0,2.074-2.329,2.729-4.512,3.93c-3.239,1.71-6.368,3.567-6.368,8.77
					c0,3.457,2.729,6.295,7.242,6.514c-0.037,0.982-0.11,3.093-0.073,3.239c0.037,0.181,3.239,0.546,3.276,0.363
					c0.037-0.181,0.072-3.02,0.108-3.966c0.946-0.291,1.71-0.692,2.074-1.055l0.255,1.747c0,0,3.057,0.145,4.841-0.619
					c0.181-0.073-0.437-7.097-0.437-8.261c0-0.546-5.676-0.509-5.676-0.364C2.274,6.091,1.038,6.891-0.091,6.891
					c-0.654,0-2.001-0.328-2.001-1.783c0-1.309,2.73-2.11,5.423-3.712C6.569-0.495,9.298-2.425,9.298-6.9
					c0-3.967-3.311-6.952-6.804-7.17c0.072-1.529,0-3.457,0-3.565c0-0.11-3.458,0.035-3.53,0.035c-0.073,0-0.255,2.366-0.328,3.931
					c-1.602,0.473-2.584,1.201-2.911,1.601c-0.073-0.8-0.146-2.256-0.183-2.256c-0.181,0.073-4.766,0.328-4.766,0.328
					C-9.298-13.197-9.298-6.646-9.298-4.754z"/>
				<path d="M-9.298-4.754c2.475,0.546,4.986,0.655,5.713,0.546c0.655-2.474,2.148-3.785,3.312-3.785
					c1.055,0,2.001,0.582,2.001,1.675c0,2.074-2.329,2.729-4.512,3.93c-3.239,1.71-6.368,3.567-6.368,8.77
					c0,3.457,2.729,6.295,7.242,6.514c-0.037,0.982-0.11,3.093-0.073,3.239c0.037,0.181,3.239,0.546,3.276,0.363
					c0.037-0.181,0.072-3.02,0.108-3.966c0.946-0.291,1.71-0.692,2.074-1.055l0.255,1.747c0,0,3.057,0.145,4.841-0.619
					c0.181-0.073-0.437-7.097-0.437-8.261c0-0.546-5.676-0.509-5.676-0.364C2.274,6.091,1.038,6.891-0.091,6.891
					c-0.654,0-2.001-0.328-2.001-1.783c0-1.309,2.73-2.11,5.423-3.712C6.569-0.495,9.298-2.425,9.298-6.9
					c0-3.967-3.311-6.952-6.804-7.17c0.072-1.529,0-3.457,0-3.565c0-0.11-3.458,0.035-3.53,0.035c-0.073,0-0.255,2.366-0.328,3.931
					c-1.602,0.473-2.584,1.201-2.911,1.601c-0.073-0.8-0.146-2.256-0.183-2.256c-0.181,0.073-4.766,0.328-4.766,0.328
					C-9.298-13.197-9.298-6.646-9.298-4.754z"/>
			</g>
			<g>
				<g>
					<g>
						<path style="fill:#FFFFFF;" d="M-9.298-2.754c2.475,0.546,4.986,0.655,5.713,0.546c0.655-2.474,2.148-3.785,3.312-3.785
							c1.055,0,2.001,0.582,2.001,1.675c0,2.074-2.329,2.729-4.512,3.93c-3.239,1.71-6.368,3.567-6.368,8.77
							c0,3.457,2.729,6.295,7.242,6.514c-0.037,0.982-0.11,3.093-0.073,3.239c0.037,0.181,3.239,0.546,3.276,0.363
							c0.037-0.181,0.072-3.02,0.108-3.966c0.946-0.291,1.71-0.692,2.074-1.055l0.255,1.747c0,0,3.057,0.145,4.841-0.619
							c0.181-0.073-0.437-7.097-0.437-8.261c0-0.546-5.676-0.509-5.676-0.364C2.274,8.091,1.038,8.891-0.091,8.891
							c-0.654,0-2.001-0.328-2.001-1.783c0-1.309,2.73-2.11,5.423-3.712C6.569,1.505,9.298-0.425,9.298-4.9
							c0-3.967-3.311-6.952-6.804-7.17c0.072-1.529,0-3.457,0-3.565c0-0.11-3.458,0.035-3.53,0.035
							c-0.073,0-0.255,2.366-0.328,3.931c-1.602,0.473-2.584,1.201-2.911,1.601c-0.073-0.8-0.146-2.256-0.183-2.256
							c-0.181,0.073-4.766,0.328-4.766,0.328C-9.298-11.197-9.298-4.646-9.298-2.754z"/>
					</g>
				</g>
				<g>
					<g>
						<path style="fill:#FFFFFF;" d="M-9.298-2.754c2.475,0.546,4.986,0.655,5.713,0.546c0.655-2.474,2.148-3.785,3.312-3.785
							c1.055,0,2.001,0.582,2.001,1.675c0,2.074-2.329,2.729-4.512,3.93c-3.239,1.71-6.368,3.567-6.368,8.77
							c0,3.457,2.729,6.295,7.242,6.514c-0.037,0.982-0.11,3.093-0.073,3.239c0.037,0.181,3.239,0.546,3.276,0.363
							c0.037-0.181,0.072-3.02,0.108-3.966c0.946-0.291,1.71-0.692,2.074-1.055l0.255,1.747c0,0,3.057,0.145,4.841-0.619
							c0.181-0.073-0.437-7.097-0.437-8.261c0-0.546-5.676-0.509-5.676-0.364C2.274,8.091,1.038,8.891-0.091,8.891
							c-0.654,0-2.001-0.328-2.001-1.783c0-1.309,2.73-2.11,5.423-3.712C6.569,1.505,9.298-0.425,9.298-4.9
							c0-3.967-3.311-6.952-6.804-7.17c0.072-1.529,0-3.457,0-3.565c0-0.11-3.458,0.035-3.53,0.035
							c-0.073,0-0.255,2.366-0.328,3.931c-1.602,0.473-2.584,1.201-2.911,1.601c-0.073-0.8-0.146-2.256-0.183-2.256
							c-0.181,0.073-4.766,0.328-4.766,0.328C-9.298-11.197-9.298-4.646-9.298-2.754z"/>
					</g>
				</g>
			</g>
		</g>
	</g>
</symbol>
<symbol  id="Shape_Icon_Time" viewBox="-40 -42 80 82">
	<g>
		<g>
			<g>
				<g>
					<g>
						<g style="opacity:0.2;">
							<path d="M40-2c0-22.091-17.909-40-40-40S-40-24.091-40-2s17.909,40,40,40S40,20.092,40-2z"/>
						</g>
						<g>
							<path style="fill:#3479A3;" d="M40,0c0-22.091-17.909-40-40-40S-40-22.091-40,0s17.909,40,40,40S40,22.092,40,0z"/>
						</g>
					</g>
					<path style="fill:#276482;" d="M0-7.665c-13.161,0-24.835-6.358-32.125-16.168C-24.835-33.642-13.161-40,0-40
						s24.835,6.358,32.125,16.168C24.835-14.022,13.161-7.665,0-7.665z"/>
					<path style="fill:#A1E2FC;" d="M0,40c-15.404,0-28.766-8.713-35.449-21.474C-28.766,5.765-15.404-2.948,0-2.948
						s28.766,8.713,35.449,21.474C28.766,31.287,15.404,40,0,40z"/>
					<path style="fill:#A1E2FC;" d="M35.449,1.436c0-19.578-15.871-35.449-35.449-35.449S-35.449-18.142-35.449,1.436
						S-19.578,36.885,0,36.885S35.449,21.014,35.449,1.436z"/>
					<path style="fill:#5DAAE7;" d="M34.08,2.805c0-18.822-15.258-34.08-34.08-34.08c-16.989,0-31.075,12.432-33.657,28.695
						l6.838,2.37l-7.103-0.291c0,0-0.158,2.191-0.158,3.306c0,18.822,15.258,34.08,34.08,34.08
						c17.563,0,32.023-13.285,33.878-30.355l-7.164,0.247l7.354-3.071C34.076,3.406,34.08,3.106,34.08,2.805z"/>
					<path style="fill:#3479A3;" d="M25.336,2.805c0-13.993-11.343-25.336-25.336-25.336S-25.336-11.187-25.336,2.805
						S-13.993,28.141,0,28.141S25.336,16.798,25.336,2.805z"/>
					<path style="fill:#276482;" d="M0,24.038c13.301,0,24.201-10.252,25.246-23.284c0.054,0.677,0.09,1.36,0.09,2.052
						c0,13.992-11.343,25.336-25.336,25.336S-25.336,16.798-25.336,2.805c0-0.691,0.035-1.374,0.09-2.052
						C-24.201,13.786-13.301,24.038,0,24.038z"/>
					<polygon style="fill:#276482;" points="-40,-1.298 -35.449,1.436 -26.818,-0.209 -34.08,-0.74 					"/>
					<polygon style="fill:#276482;" points="39.594,5.716 35.345,8.421 26.714,6.777 33.976,6.245 					"/>
				</g>
			</g>
		</g>
		<polygon style="fill:#A1E2FC;" points="1,19 -4,19 -4,0 19,0 19,5 1,5 		"/>
	</g>
</symbol>
<pattern  x="2101" y="-1374" width="315" height="270" patternUnits="userSpaceOnUse" id="Wooden_pattern_3" viewBox="0 -270 315 270" style="overflow:visible;">
	<g>
		<polygon style="fill:none;" points="0,-270 315,-270 315,0 0,0 		"/>
		<g>
			<polygon style="opacity:0.2;fill:#E7A149;" points="0,-102.596 0,-135.048 315,-135.048 315,-102.596 			"/>
			<polygon style="opacity:0.15;fill:#E7A149;" points="0,-68.767 0,-101.219 315,-101.219 315,-68.767 			"/>
			<polygon style="opacity:0.1;fill:#E7A149;" points="0,-35.191 0,-67.643 315,-67.643 315,-35.191 			"/>
			<polygon style="opacity:0.15;fill:#E7A149;" points="0,-1.362 0,-33.814 315,-33.814 315,-1.362 			"/>
			<polygon style="opacity:0.2;fill:#E7A149;" points="0,-237.548 0,-270 315,-270 315,-237.548 			"/>
			<polygon style="opacity:0.15;fill:#E7A149;" points="0,-203.719 0,-236.171 315,-236.171 315,-203.719 			"/>
			<polygon style="opacity:0.1;fill:#E7A149;" points="0,-170.143 0,-202.595 315,-202.595 315,-170.143 			"/>
			<polygon style="opacity:0.15;fill:#E7A149;" points="0,-136.314 0,-168.766 315,-168.766 315,-136.314 			"/>
		</g>
	</g>
</pattern>
<g id="element_x5F_rays">
</g>
<g id="element_x5F_ribbon">
</g>
<g id="element_x5F_board_x5F_title">
	<g id="Shield">
	</g>
	<g id="element_x5F_board">
	</g>
</g>
<g id="element_x5F_board_x5F_corner">
</g>
<g id="background_x5F_scene2">
	<g id="background_x5F_mountain">
	</g>
</g>
<g id="background_x5F_scene1">
	<g id="background_x5F_sky">
	</g>
	<g id="background_x5F_scene1_x5F_layer3">
		<g id="Background_Hill">
		</g>
	</g>
	<g id="background_x5F_scene1_x5F_layer2">
	</g>
	<g id="background_x5F_tree">
	</g>
	<g id="background_x5F_scene1_x5F_layer1">
		<g id="Background_Land">
		</g>
	</g>
</g>
<g id="background_x5F_clouds">
	<g id="Background_Clouds">
	</g>
</g>
<g id="element_x5F_tooltips">
	<g id="Element_Tooltips">
		<g id="Element_Board_Brown_Big_6_">
		</g>
	</g>
</g>
<g id="window_x5F_title_x5F_nail">
	<g id="Window_Title_Nail">
	</g>
</g>
<g id="window_x5F_title_x5F_empty">
	<g id="Window_Title_Rope">
	</g>
</g>
<g id="window_x5F_title_x5F_leaves">
	<g id="WIndow_Title_Rope_Leave">
	</g>
</g>
<g id="btn_x5F_text_x5F_grey_1_">
	<g id="Button_Text_Grey">
	</g>
</g>
<g id="btn_x5F_text_x5F_red">
	<g id="Element_Board_Red_Small">
	</g>
</g>
<g id="btn_x5F_text_x5F_green">
	<g id="Button_Text_Green">
	</g>
</g>
<g id="btn_x5F_text_x5F_brown">
	<g id="Button_Text_Brown">
	</g>
</g>
<g id="boards_x5F_small_x5F_grey">
	<g id="Element_Board_Grey_Small">
	</g>
</g>
<g id="boards_x5F_small_x5F_red">
	<g id="Button_Text_Red">
	</g>
</g>
<g id="boards_x5F_small_x5F_green_1_">
	<g id="Element_Board_Green_Small">
	</g>
</g>
<g id="boards_x5F_small_x5F_brown_1_">
	<g id="Element_Board_Brown_Small">
	</g>
</g>
<g id="boards_x5F_large_x5F_grey">
	<g id="Element_Board_Grey_Big">
	</g>
</g>
<g id="boards_x5F_large_x5F_red">
	<g id="Element_Board_Red_Big">
		<g id="Element_Board_Brown_Big_5_">
		</g>
	</g>
</g>
<g id="boards_x5F_large_x5F_green">
	<g id="Element_Board_Green_Big">
		<g id="Element_Board_Brown_Big_4_">
		</g>
	</g>
</g>
<g id="boards_x5F_large_x5F_brown">
	<g id="Element_Board_Brown_Big">
	</g>
</g>
<g id="boards_x5F_bar_x5F_top">
	<g id="window_bar_top">
		<g id="Window_tab_bar_bottom_1_">
		</g>
	</g>
</g>
<g id="boards_x5F_bar_x5F_bottom">
	<g id="Window_tab_bar_bottom">
	</g>
</g>
<g id="loader_x5F_bar_x5F_bg">
	<g id="Element_Loader_BG">
	</g>
</g>
<g id="loader_x5F_bar_x5F_blue_x5F_fill">
</g>
<g id="loader_x5F_bar_x5F_red_x5F_fill">
</g>
<g id="loader_x5F_bar_x5F_purple_x5F_fill">
</g>
<g id="loader_x5F_bar_x5F_green_x5F_fill">
</g>
<g id="loader_x5F_bar_x5F_grey_x5F_fill">
</g>
<g id="status_x5F_bar_x5F_life">
</g>
<g id="status_x5F_bar_x5F_power">
</g>
<g id="status_x5F_bar_x5F_defense">
</g>
<g id="status_x5F_bar_x5F_weapon">
</g>
<g id="status_x5F_bar_x5F_money">
</g>
<g id="status_x5F_bar_x5F_time">
</g>
<g id="status_x5F_bar_x5F_weapon_x5F_fill">
</g>
<g id="status_x5F_bar_x5F_power_x5F_fill">
</g>
<g id="status_x5F_bar_x5F_defense_x5F_fill">
</g>
<g id="status_x5F_bar_x5F_life_x5F_fill">
</g>
<g id="element_x5F_button_x5F_level_x5F_locked">
	<g id="Element_Level_Empty">
	</g>
</g>
<g id="element_x5F_button_x5F_level">
	<g id="Element_Level_BG">
	</g>
</g>
<g id="element_x5F_pagination_x5F_active">
	<g id="Element_Pagination_Active">
	</g>
</g>
<g id="element_x5F_pagination_x5F_empty">
	<g id="Element_Pagination_Default">
	</g>
</g>
<g id="element_x5F_star_x5F_small_1_">
	<g id="element_x5F_star_x5F_small_3_">
	</g>
</g>
<g id="element_x5F_radio_x5F_on">
	<g id="element_x5F_radio_x5F_on_1_">
	</g>
</g>
<g id="element_x5F_radio_x5F_off_1_">
	<g id="element_x5F_radio_x5F_off_3_">
	</g>
</g>
<g id="element_x5F_checkmark_x5F_unchecked_1_">
	<g id="element_x5F_checkmark_x5F_unchecked_3_">
	</g>
</g>
<g id="element_x5F_checkmark_x5F_checked_1_">
	<g id="element_x5F_checkmark_x5F_checked_2_">
	</g>
</g>
<g id="element_x5F_toggle_x5F_on">
	<g id="Element_Toggle_On">
	</g>
</g>
<g id="element_x5F_toggle_x5F_off">
	<g id="Element_Toggle_Off">
	</g>
</g>
<g id="element_x5F_small_x5F_weapon">
	<g id="Shape_Icon_Weapon_Small">
	</g>
</g>
<g id="element_x5F_small_x5F_power">
	<g id="Shape_Icon_Power_Small">
	</g>
</g>
<g id="element_x5F_small_x5F_heart">
	<g id="Shape_Icon_Heart_Small">
	</g>
</g>
<g id="element_x5F_small_x5F_defense">
	<g id="Shape_Icon_Defense_Small">
	</g>
</g>
<g id="element_x5F_big_x5F_power">
	<g id="Shape_Icon_Power_Big">
	</g>
</g>
<g id="element_x5F_weapon">
	<g id="Shape_Icon_Weapon_Big">
	</g>
</g>
<g id="element_x5F_big_x5F_life">
	<g id="Shape_Icon_Heart_Big">
	</g>
</g>
<g id="element_x5F_big_x5F_defense">
	<g id="Shape_Icon_Defense_Big">
	</g>
</g>
<g id="element_x5F_rope_x5F_tie">
</g>
<g id="element_x5F_rope">
</g>
<g id="element_x5F_new_x5F_score">
	<g id="Element_label_New">
	</g>
</g>
<g id="element_x5F_rope_x5F_right">
	<g id="Element_Rope__x23_1_1_">
	</g>
</g>
<g id="element_x5F_rope_x5F_left">
	<g id="Element_Rope__x23_1">
	</g>
</g>
<g id="element_x5F_rope2_x5F_left">
	<g id="Element_Rope__x23_2_14_">
	</g>
</g>
<g id="element_x5F_rope2_x5F_right">
	<g id="Element_Rope__x23_2">
	</g>
</g>
<g id="element_x5F_slider_x5F_bg">
</g>
<g id="element_x5F_slider_x5F_bar">
</g>
<g id="element_x5F_slider_x5F_button">
</g>
<g id="element_x5F_star_x5F_big_x5F_empty">
	<g id="Element_Star_Empty_Big">
	</g>
</g>
<g id="element_x5F_star_x5F_medium_x5F_empty">
	<g id="Element_Star_Empty_1_">
	</g>
</g>
<g id="element_x5F_star_x5F_big">
	<g id="Element_Star_Filled_Big_1_">
	</g>
</g>
<g id="element_x5F_star_x5F_medium">
	<g id="Element_Star_Filled_Medium">
		<g id="Element_Star_Empty">
		</g>
		<g id="Element_Star_Filled_Big">
		</g>
	</g>
</g>
<g id="window_x5F_panel_x5F_pause">
	<g id="Window_Panel_1_6_">
	</g>
</g>
<g id="window_x5F_panel_x5F_popup">
	<g id="Window_Panel_1_5_">
		<g>
			<g>
				<g>
					<g style="opacity:0.2;">
						<path d="M439.163,128.385c0,0,0-18.034,0-38.57c0-39.71,0-85.816,0-85.816s-46.318,0-107.397,0c-69.263,0-154.113,0-223.529,0
							C46.742,4,0,4,0,4s0,46.485,0,85.816c0,19.72,0,36.809,0,36.809h3.017v35.533l-1.527,0.919v37.19l1.527,0.737
							c0,0,0,23.942,0,48.811c0,39.301,0,80.184,0,80.184s45.285,0,105.22,0c69.069,0,154.113,0,223.529,0
							c60.86,0,107.087,0,107.087,0s0-40.884,0-80.184c0-24.869,0-48.811,0-48.811l1.148-1.556v-37.19l-2.084-0.556l-0.65-33.317
							H439.163z"/>
					</g>
					<g>
						<path style="fill:#CF883C;" d="M439.163,125.65c0,0,0-16.459,0-35.835c0-40.542,0-89.816,0-89.816s-46.318,0-107.397,0
							c-69.263,0-154.113,0-223.529,0C46.742,0,0,0,0,0s0,49.712,0,89.816c0,18.538,0,34.074,0,34.074h3.017v35.533l-1.527,0.919
							v37.19l1.527,0.737c0,0,0,25.728,0,51.546c0,38.025,0,76.184,0,76.184s45.285,0,105.22,0c69.069,0,154.113,0,223.529,0
							c60.86,0,107.087,0,107.087,0s0-38.159,0-76.184c0-25.818,0-51.546,0-51.546l1.148-1.556v-37.19l-2.084-0.556l-0.65-33.317
							H439.163z"/>
					</g>
				</g>
				<path style="fill:#FCC38B;" d="M435.001,122.762c0,0,0-15.1,0-32.947c0-37.713,0-83.816,0-83.816s-44.379,0-103.235,0
					c-69,0-154.337,0-223.529,0C48.884,6,4.001,6,4.001,6s0,46.102,0,83.816c0,17.847,0,32.947,0,32.947h3v36.239h-3v36.239h3
					c0,0,0,27.885,0,54.575c0,35.828,0,70.184,0,70.184s43.433,0,101.236,0c68.807,0,154.333,0,223.529,0
					c58.798,0,103.235,0,103.235,0s0-34.356,0-70.184c0-26.69,0-54.575,0-54.575h3v-36.239h-5v-36.239H435.001z"/>
				<path style="fill:#E7A149;" d="M433.001,5.192c0,0-43.452,0.091-101.235,0.211c-68.872,0.118-154.461,0.265-223.529,0.383
					C49.955,5.908,6.001,6,6.001,6s0,46.58,0,83.816c0,16.952,0,31.072,0,31.072l24.754,2.559H9.001v33.801l28.424,2.276
					l-31.424,0.395v33.955h22.899l-19.899,2.475c0,0,0,27.358,0,53.468c0,34.853,0,68.184,0,68.184s42.507,0,99.236,0
					c68.673,0,154.457,0,223.529,0c57.727,0,101.235,0,101.235,0s0-33.29,0-68.184c0-26.277,0-53.885,0-53.885l-28.96-2.057
					l31.96-0.684v-34.188l-16.221,0.684l11.221-2.604v-33.048l-16.035-0.922l18.035-2.777c0,0,0-13.814,0-30.519
					C433.001,52.45,433.001,5.192,433.001,5.192z"/>
				<path style="fill:#CF883C;" d="M421.001,300c0,0-37.914,0-89.235,0c-67.992,0-155.307,0-223.529,0c-51.829,0-90.236,0-90.236,0
					s0-19.871,0-50.184c0-41.909,0-113.008,0-160c0-40.543,0-68.816,0-68.816s38.407,0,90.236,0c68.222,0,155.536,0,223.529,0
					c51.322,0,89.235,0,89.235,0s0,28.273,0,68.816c0,46.992,0,118.091,0,160C421.001,280.129,421.001,300,421.001,300z"/>
				<path style="fill:#A56226;" d="M18.441,21l6.489,6c0,0,35.227,0,83.308,0c67.622,0,156.119,0,223.529,0
					c47.65,0,82.468,0,82.468,0l6.489-6c0,0-37.788,0-88.957,0c-67.981,0-155.354,0-223.529,0C56.643,21,18.441,21,18.441,21z"/>
				<path style="fill:#FCC38B;" d="M18.441,300l6.489-6c0,0,35.227,0,83.308,0c67.622,0,156.119,0,223.529,0
					c47.65,0,82.468,0,82.468,0l6.489,6c0,0-37.788,0-88.957,0c-67.981,0-155.354,0-223.529,0C56.643,300,18.441,300,18.441,300z"/>
				<path style="fill:#FCC38B;" d="M0,0l3.944,6c0,0,44.907,0,104.293,0c69.184,0,154.504,0,223.529,0c58.97,0,103.454,0,103.454,0
					l3.944-6c0,0-46.318,0-107.397,0c-69.263,0-154.113,0-223.529,0C46.742,0,0,0,0,0z"/>
				<polygon style="fill:#A56226;" points="437.266,125.497 433.428,122.757 414.951,123.073 433.769,120.792 439.163,125.497
					"/>
				<polygon style="fill:#A56226;" points="419.78,159.541 433.428,159.002 437.916,159.002 437.883,157.289 432.01,157.099 				"/>
				<polygon style="fill:#A56226;" points="440,196.795 436.466,193.873 404.005,193.873 434.978,195.182 438.852,198.351 				"/>
				<path style="fill:#A56226;" d="M3.017,326l3.874-6c0,0,43.487,0,101.346,0c68.823,0,154.343,0,223.529,0
					c58.788,0,103.212,0,103.212,0l3.874,6c0,0-46.227,0-107.087,0c-69.415,0-154.459,0-223.529,0C48.301,326,3.017,326,3.017,326z"
					/>
				<polygon style="fill:#A56226;" points="28.411,193.873 6.891,195.182 3.017,198.31 1.489,197.634 5.393,193.873 				"/>
				<polygon style="fill:#A56226;" points="6.891,159.002 37.755,159.541 8.308,157.273 3.944,159.002 				"/>
				<polygon style="fill:#A56226;" points="0,124.13 5.393,121.007 30.754,123.172 6.891,122.984 3.017,124.13 				"/>
				<g>
					<linearGradient id="SVGID_5_" gradientUnits="userSpaceOnUse" x1="13.6927" y1="21.3883" x2="13.6927" y2="10.8925">
						<stop  offset="0" style="stop-color:#F0B66C"/>
						<stop  offset="1" style="stop-color:#AA611D"/>
					</linearGradient>
					<ellipse style="fill:url(#SVGID_5_);" cx="13.693" cy="14.833" rx="6.195" ry="6.177"/>
					<g>
						<ellipse style="fill:#303030;" cx="13.693" cy="14.833" rx="4.729" ry="4.716"/>
						<g>
							<path style="fill:#51504F;" d="M13.693,12.832c1.902,0,3.485,1.296,3.949,3.046c0.089-0.337,0.152-0.683,0.152-1.046
								c0-2.257-1.835-4.088-4.101-4.088c-2.265,0-4.101,1.831-4.101,4.088c0,0.364,0.062,0.709,0.152,1.046
								C10.208,14.128,11.792,12.832,13.693,12.832z"/>
						</g>
						<ellipse style="fill:#848280;" cx="13.572" cy="11.601" rx="1.134" ry="0.533"/>
					</g>
				</g>
				<g>
					<linearGradient id="SVGID_6_" gradientUnits="userSpaceOnUse" x1="424.23" y1="21.3883" x2="424.23" y2="10.8925">
						<stop  offset="0" style="stop-color:#F0B66C"/>
						<stop  offset="1" style="stop-color:#AA611D"/>
					</linearGradient>
					<ellipse style="fill:url(#SVGID_6_);" cx="424.23" cy="14.833" rx="6.195" ry="6.177"/>
					<g>
						<ellipse style="fill:#303030;" cx="424.23" cy="14.833" rx="4.729" ry="4.716"/>
						<g>
							<path style="fill:#51504F;" d="M424.23,12.832c1.901,0,3.485,1.296,3.949,3.046c0.089-0.337,0.152-0.683,0.152-1.046
								c0-2.257-1.835-4.088-4.101-4.088c-2.265,0-4.101,1.831-4.101,4.088c0,0.364,0.062,0.709,0.152,1.046
								C420.745,14.128,422.329,12.832,424.23,12.832z"/>
						</g>
						<ellipse style="fill:#848280;" cx="424.109" cy="11.601" rx="1.134" ry="0.533"/>
					</g>
				</g>
				<g>
					<linearGradient id="SVGID_7_" gradientUnits="userSpaceOnUse" x1="16.5379" y1="316.713" x2="16.5379" y2="306.2172">
						<stop  offset="0" style="stop-color:#F0B66C"/>
						<stop  offset="1" style="stop-color:#AA611D"/>
					</linearGradient>
					<ellipse style="fill:url(#SVGID_7_);" cx="16.538" cy="310.158" rx="6.195" ry="6.177"/>
					<g>
						<ellipse style="fill:#303030;" cx="16.538" cy="310.158" rx="4.729" ry="4.716"/>
						<g>
							<path style="fill:#51504F;" d="M16.538,308.157c1.902,0,3.485,1.296,3.949,3.046c0.089-0.337,0.152-0.683,0.152-1.046
								c0-2.257-1.835-4.088-4.101-4.088c-2.265,0-4.101,1.831-4.101,4.088c0,0.364,0.062,0.709,0.152,1.046
								C13.053,309.453,14.637,308.157,16.538,308.157z"/>
						</g>
						<ellipse style="fill:#848280;" cx="16.417" cy="306.925" rx="1.134" ry="0.533"/>
					</g>
				</g>
				<g>
					<linearGradient id="SVGID_8_" gradientUnits="userSpaceOnUse" x1="425.245" y1="316.3896" x2="425.245" y2="305.8938">
						<stop  offset="0" style="stop-color:#F0B66C"/>
						<stop  offset="1" style="stop-color:#AA611D"/>
					</linearGradient>
					<ellipse style="fill:url(#SVGID_8_);" cx="425.245" cy="309.835" rx="6.195" ry="6.177"/>
					<g>
						<ellipse style="fill:#303030;" cx="425.245" cy="309.835" rx="4.729" ry="4.716"/>
						<g>
							<path style="fill:#51504F;" d="M425.245,307.834c1.902,0,3.485,1.296,3.949,3.046c0.089-0.337,0.152-0.683,0.152-1.046
								c0-2.257-1.835-4.088-4.101-4.088c-2.265,0-4.101,1.831-4.101,4.088c0,0.364,0.062,0.709,0.152,1.046
								C421.76,309.129,423.344,307.834,425.245,307.834z"/>
						</g>
						<ellipse style="fill:#848280;" cx="425.124" cy="306.602" rx="1.134" ry="0.533"/>
					</g>
				</g>
			</g>
			<g>
				<path style="fill:#874F21;" d="M414.001,294c0,0-34.709,0-82.235,0c-67.375,0-155.9,0-223.529,0c-48.039,0-83.236,0-83.236,0
					s0-17.333,0-44.184c0-40.752,0-113.567,0-160c0-37.195,0-62.816,0-62.816s35.197,0,83.236,0c67.628,0,156.153,0,223.529,0
					c47.526,0,82.235,0,82.235,0s0,25.62,0,62.816c0,46.433,0,119.248,0,160C414.001,276.667,414.001,294,414.001,294z"/>
				<pattern  id="SVGID_9_" xlink:href="#Wooden_pattern_3" patternTransform="matrix(1.1146 0 0 0.783 1264.9651 -1339.6493)">
				</pattern>
				<path style="fill:url(#SVGID_9_);" d="M414.001,294c0,0-34.709,0-82.235,0c-67.375,0-155.9,0-223.529,0
					c-48.039,0-83.236,0-83.236,0s0-17.333,0-44.184c0-40.752,0-113.567,0-160c0-37.195,0-62.816,0-62.816s35.197,0,83.236,0
					c67.628,0,156.153,0,223.529,0c47.526,0,82.235,0,82.235,0s0,25.62,0,62.816c0,46.433,0,119.248,0,160
					C414.001,276.667,414.001,294,414.001,294z"/>
				<path style="opacity:0.31;" d="M25.001,27c0,0,0,25.62,0,62.816c0,46.433,0,119.248,0,160c0,26.851,0,44.184,0,44.184
					s35.197,0,83.236,0c67.628,0,156.153,0,223.529,0c47.526,0,82.235,0,82.235,0s0-17.333,0-44.184c0-40.752,0-113.567,0-160
					c0-37.195,0-62.816,0-62.816s-34.709,0-82.235,0c-67.375,0-155.9,0-223.529,0C60.198,27,25.001,27,25.001,27z M410.001,293
					c0,0-32.887,0-78.235,0c-66.98,0-156.28,0-223.529,0c-45.864,0-79.236,0-79.236,0s0-16.938,0-43.184c0-40.858,0-114.708,0-160
					c0-33.867,0-56.816,0-56.816s33.372,0,79.236,0c67.249,0,156.549,0,223.529,0c45.348,0,78.235,0,78.235,0s0,22.949,0,56.816
					c0,45.292,0,119.142,0,160C410.001,276.062,410.001,293,410.001,293z"/>
			</g>
		</g>
	</g>
</g>
<g id="window_x5F_panel_x5F_store">
	<g id="Window_Panel_1_4_">
	</g>
</g>
<g id="window_x5F_panel_x5F_upgrade">
	<g id="Window_Panel_1_3_">
	</g>
</g>
<g id="window_x5F_panel_x5F_setting_1_">
	<g id="window_x5F_panel_x5F_setting_2_">
	</g>
</g>
<g id="window_x5F_panel_x5F_level_1_">
	<g id="window_x5F_panel_x5F_level_2_">
	</g>
</g>
<g id="window_x5F_panel_x5F_option">
	<g id="Window_Panel_1_2_">
	</g>
</g>
<g id="window_x5F_panel_x5F_level_3_">
	<g id="Window_Panel_1_1_">
	</g>
</g>
<g id="window_x5F_title_x5F_3">
</g>
<g id="window_x5F_title_x5F_2">
</g>
<g id="window_x5F_panel_x5F_main">
	<g id="Window_Panel_1">
	</g>
</g>
<g id="window_x5F_title_x5F_1">
</g>
<g id="nyt_x5F_exporter_x5F_info" style="display:none;">
</g>
</svg>
